<svg xmlns="http://www.w3.org/2000/svg" width="90" height="90" viewBox="0 0 90 90"><defs><style>.a{fill:#f8f8f8;}</style></defs><g transform="translate(-1033 -678)"><g transform="translate(1033 678)"><circle class="a" cx="45" cy="45" r="45"/></g><g transform="translate(134.673 -4251.12)"><path d="M966,4969.261H945.287v12.423H966Zm-11.692,6.212-7.7,4.406v-8.813Zm-5.872-4.888h14.411l-7.2,4.125Zm7.206,5.65,7.2,4.124H948.44Zm1.333-.763,7.7-4.407v8.813Z" transform="translate(-3.497 -2.584)"/><path d="M973.151,4996.666l-.021-.641h-6.435v-29.617a4.379,4.379,0,0,0-4.262-4.373l-10.59,0v-4.049H957.7l4.75-2.375-4.75-2.375h-5.856V4951.5a4.379,4.379,0,0,0-4.257-4.373l-27.5-.012v.049c-.128-.011-.252-.039-.382-.039a4.379,4.379,0,0,0-4.374,4.374v1.627h7.423v29.617a4.38,4.38,0,0,0,4.375,4.374H937.6v10.53a4.4,4.4,0,0,0,4.4,4.374l27.354.01a3.852,3.852,0,0,0,3.819-4.048C973.181,4997.626,973.151,4996.666,973.151,4996.666Zm-35-40.009a1.05,1.05,0,0,1,0-2.1h1.864v2.1Zm3.189-2.1h13.715v2.1H941.338Zm18.148,1.05-2.1,1.05h-1.007v-2.1h1.007Zm-36.736-3.8h-6.1v-.3a3.049,3.049,0,0,1,6.1,0Zm1.325,30.942V4951.5a4.357,4.357,0,0,0-1.255-3.059l24.648.01a3.053,3.053,0,0,1,3.049,3.049v1.728H938.15a2.375,2.375,0,0,0,0,4.75h12.368v4.048l-15.583-.006v.05c-.128-.011-.251-.039-.382-.039a4.378,4.378,0,0,0-4.374,4.373l-.006,16.34a3.049,3.049,0,0,1-6.1,0Zm6.176,3.049a4.354,4.354,0,0,0,1.248-3.049l.006-16.34a3.049,3.049,0,0,1,6.1,0V4985.8Zm11.726,14.9a3.054,3.054,0,0,1-3.049-3.049v-31.244a4.357,4.357,0,0,0-1.256-3.059l24.648.01a3.052,3.052,0,0,1,3.049,3.048v29.617H945.688l-.92.132.155.692a4.414,4.414,0,0,1,.1.8A3.054,3.054,0,0,1,941.977,5000.7Zm27.385.01H945.1a4.36,4.36,0,0,0,1.252-3.06c0-.094-.005-.2-.014-.3h25.508c.006.24.011.49.011.638A2.53,2.53,0,0,1,969.361,5000.711Z" transform="translate(0 0)"/><rect width="13.408" height="1.325" transform="translate(945.444 4982.697)"/><rect width="20.805" height="1.325" transform="translate(941.746 4990.824)"/><rect width="20.805" height="1.325" transform="translate(941.746 4986.761)"/></g></g></svg>