<svg xmlns="http://www.w3.org/2000/svg" width="90" height="90" viewBox="0 0 90 90"><defs><style>.a{fill:#f8f8f8;}</style></defs><g transform="translate(-1033 -678)"><g transform="translate(1033 678)"><circle class="a" cx="45" cy="45" r="45"/></g><g transform="translate(986.131 638.921)"><path d="M120.827,99.44V61.079H62.411V99.44H58.869V102.4l2.76,3.858h59.98l2.76-3.858V99.44Zm-1.5-36.861v4.344H63.911V62.579ZM63.911,68.423h55.416V99.44H63.911Zm58.958,33.5-2.032,2.84H62.4l-2.031-2.84v-.979h62.5Z"/><path d="M98.806,80.062l5.548,4.558-5.548,4.558.952,1.159,6.959-5.717L99.758,78.9Z"/><path d="M83.48,78.9l-6.96,5.717,6.96,5.717.952-1.159L78.884,84.62l5.548-4.558Z"/><rect width="22.771" height="1.5" transform="translate(85.902 94.495) rotate(-63.7)"/><rect width="1.5" height="1.5" transform="translate(66.119 63.923)"/><rect width="1.5" height="1.5" transform="translate(72.719 63.923)"/><rect width="1.5" height="1.5" transform="translate(69.419 63.923)"/></g></g></svg>