<svg xmlns="http://www.w3.org/2000/svg" width="90" height="90" viewBox="0 0 90 90"><defs><style>.a{fill:#f8f8f8;}</style></defs><g transform="translate(-203 -1815)"><g transform="translate(203 1815)"><circle class="a" cx="45" cy="45" r="45"/></g><g transform="translate(-205.904 -2133.883)"><path d="M467.756,3996.254a11.115,11.115,0,0,0,.011,22.23h.012a11.115,11.115,0,0,0-.023-22.23Zm0,1.3h.007c1.376,0,2.867,2.191,3.561,5.652l-7.119.007a14.442,14.442,0,0,1,.9-2.977C465.846,3998.53,466.812,3997.553,467.755,3997.549Zm3.782,6.946a22.766,22.766,0,0,1,.008,5.741l-7.543.008a22.227,22.227,0,0,1-.186-2.87,22.575,22.575,0,0,1,.177-2.87Zm-10.719-4.062a9.755,9.755,0,0,1,4.1-2.463,8.783,8.783,0,0,0-1,1.742,15.919,15.919,0,0,0-1.032,3.5l-4,0A9.79,9.79,0,0,1,460.817,4000.432Zm-2.869,6.947a9.839,9.839,0,0,1,.422-2.87l4.321,0a23.656,23.656,0,0,0,.008,5.74l-4.318,0A9.789,9.789,0,0,1,457.948,4007.379Zm.945,4.163,4,0a12.765,12.765,0,0,0,2.052,5.233A9.86,9.86,0,0,1,458.892,4011.542Zm8.885,5.647,0,.077v-.077c-1.376,0-2.868-2.19-3.562-5.653l7.119-.007a14.389,14.389,0,0,1-.9,2.977C469.689,4016.211,468.72,4017.188,467.778,4017.189Zm6.941-2.883a9.776,9.776,0,0,1-4.1,2.463,8.832,8.832,0,0,0,1-1.741,15.938,15.938,0,0,0,1.032-3.5l4,0A9.807,9.807,0,0,1,474.719,4014.306Zm2.869-6.946a9.836,9.836,0,0,1-.422,2.869l-4.321,0a24.044,24.044,0,0,0,.171-2.869,23.708,23.708,0,0,0-.179-2.87l4.317,0A9.8,9.8,0,0,1,477.588,4007.36Zm-4.948-4.161a12.756,12.756,0,0,0-2.053-5.233,9.861,9.861,0,0,1,6.056,5.23Z" transform="translate(-4.213 -4.161)"/><path d="M482.118,4008.062a15.542,15.542,0,0,0-.148-4.8l3.306-2.287-2.453-5.468-3.907.948a15.516,15.516,0,0,0-3.486-3.3l.724-3.95-5.61-2.134-2.083,3.428a15.464,15.464,0,0,0-4.8.15l-2.286-3.3-5.48,2.447.95,3.91a15.733,15.733,0,0,0-3.291,3.487l-3.95-.724-2.134,5.61,3.429,2.083a15.493,15.493,0,0,0,.142,4.8l-3.308,2.288,2.46,5.483,3.909-.949a15.5,15.5,0,0,0,3.488,3.293l-.724,3.947,5.61,2.135,2.084-3.432a15.867,15.867,0,0,0,4.794-.138l2.289,3.309,5.471-2.467-.948-3.905a15.309,15.309,0,0,0,3.3-3.486l3.947.724,2.134-5.611Zm.47,6.227-3.733-.685-.235.364a14,14,0,0,1-3.567,3.764l-.351.255.9,3.7-3.508,1.581-2.163-3.127-.422.091a14.594,14.594,0,0,1-5.186.15l-.425-.064-1.969,3.241-3.6-1.369.685-3.733-.364-.235a14.218,14.218,0,0,1-3.77-3.558l-.255-.348-3.694.9-1.578-3.518,3.127-2.163-.09-.422a14.207,14.207,0,0,1-.151-5.183l.066-.428-3.244-1.969,1.369-3.6,3.731.684.235-.36a14.48,14.48,0,0,1,3.561-3.773l.348-.255-.9-3.694,3.514-1.57,2.164,3.131.425-.094a14.092,14.092,0,0,1,5.182-.161l.429.067,1.97-3.244,3.6,1.369-.684,3.731.36.235a14.255,14.255,0,0,1,3.767,3.569l.255.352,3.7-.9,1.572,3.5-3.129,2.164.092.424a14.253,14.253,0,0,1,.161,5.187l-.064.425,3.241,1.97Z" transform="translate(-2.955 -2.903)"/><path d="M447.633,3991.444l3.326-3.14-1.563-2.429a11.018,11.018,0,0,0,1.332-2.941l2.852-.436.139-4.574-2.822-.609a11.222,11.222,0,0,0-1.149-3.014l1.708-2.331-3.131-3.327-2.43,1.563a11.174,11.174,0,0,0-2.939-1.329l-.438-2.855-4.574-.139-.608,2.82a11.042,11.042,0,0,0-3.015,1.15l-2.33-1.707-3.336,3.129,1.565,2.433a11.384,11.384,0,0,0-1.322,2.938l-2.854.438-.139,4.574,2.819.608a11.223,11.223,0,0,0,1.144,3.013l-1.709,2.333,3.139,3.335,2.432-1.564a11.167,11.167,0,0,0,2.939,1.324l.436,2.852,4.574.139.609-2.822a11.363,11.363,0,0,0,3.013-1.142Zm-6.008-1.753-.424.079-.562,2.6-2.419-.073-.4-2.635-.421-.1a9.91,9.91,0,0,1-3.295-1.484l-.355-.245-2.245,1.444-1.663-1.767,1.577-2.153-.223-.369a9.919,9.919,0,0,1-1.282-3.379l-.077-.426-2.6-.563.073-2.418,2.631-.4.1-.417a10.091,10.091,0,0,1,1.485-3.3l.245-.355-1.444-2.244,1.767-1.656,2.156,1.58.37-.227a9.777,9.777,0,0,1,3.376-1.288l.426-.078.563-2.6,2.418.073.4,2.632.418.1a9.942,9.942,0,0,1,3.3,1.491l.356.249,2.246-1.445,1.655,1.759-1.579,2.156.227.369a9.941,9.941,0,0,1,1.288,3.38l.079.424,2.6.562-.073,2.419-2.635.4-.1.421a9.78,9.78,0,0,1-1.491,3.292l-.248.355,1.445,2.247-1.76,1.663-2.152-1.577-.369.223A10.121,10.121,0,0,1,441.625,3989.691Z"/><path d="M445.74,3976.484a6.49,6.49,0,0,0-4.56-2.053l-.2,0a6.533,6.533,0,0,0-.2,13.063l.2,0a6.534,6.534,0,0,0,4.755-11.01Zm-4.755,9.716-.162,0a5.239,5.239,0,0,1,.156-10.475l.162,0a5.239,5.239,0,0,1-.156,10.475Z" transform="translate(-1.171 -1.171)"/></g></g></svg>