<svg xmlns="http://www.w3.org/2000/svg" width="90" height="90" viewBox="0 0 90 90"><defs><style>.a{fill:#f8f8f8;}</style></defs><g transform="translate(-509 -684)"><g transform="translate(509 684)"><circle class="a" cx="45" cy="45" r="45"/></g><g transform="translate(221.394 -941.973)"><rect width="1.5" height="1.5" transform="translate(319.826 1659.253) rotate(-44.986)"/><rect width="1.5" height="1.5" transform="translate(343.765 1683.192) rotate(-45.003)"/><path d="M359.365,1684.49a9.3,9.3,0,0,0-6.62-2.74,9.411,9.411,0,0,0-2.308.287l-4.356-4.355.715-.716a3.324,3.324,0,0,0,0-4.7,3.247,3.247,0,0,0-1.9-.9l.232-.232a3.319,3.319,0,0,0,0-4.7,3.353,3.353,0,0,0-2.825-.9,3.309,3.309,0,0,0-.923-2.85,3.353,3.353,0,0,0-2.86-.894,3.248,3.248,0,0,0-.947-2.913,3.314,3.314,0,0,0-4.577,0l-2.114,2.115a5.961,5.961,0,0,0-1.712-4.836l-.473-.474-2.3,2.3-4.356-4.355a9.355,9.355,0,0,0-12.228-11.118l-.994.357,4.673,4.673-.332,3.83-3.822.326-4.724-4.724-.372.957a9.358,9.358,0,0,0,8.725,12.752h0a9.364,9.364,0,0,0,2.307-.287l4.356,4.356-3.216,3.216a3.013,3.013,0,0,0-.836,2.651l.853,4.827-4.036,4.037.947.947,4.53-4.529-.974-5.514a1.668,1.668,0,0,1,.463-1.471l3.217-3.216h0l4.319-4.32,3.769-3.768a4.638,4.638,0,0,1-.44,6.04l-6.145,6.145.948.948,3.98-3.981a3.214,3.214,0,0,0,.9,1.785,3.232,3.232,0,0,0,2.885.949,3.306,3.306,0,0,0,3.27,3.829,3.218,3.218,0,0,0,.475-.046,3.3,3.3,0,0,0,3.272,3.794,3.356,3.356,0,0,0,.475-.046,3.277,3.277,0,0,0,2.8,3.748l-2.713,2.714h0l-3.469,3.468a3.2,3.2,0,0,1-1.174.747l-2.015.73a5.6,5.6,0,0,0-2.041,1.3l-4.443,4.442.948.948,4.442-4.443a4.261,4.261,0,0,1,1.55-.986l2.014-.729a4.558,4.558,0,0,0,1.667-1.06l3.468-3.468,4.356,4.356a9.355,9.355,0,0,0,12.228,11.116l.993-.357-4.673-4.673.332-3.829,3.823-.326,4.725,4.725.371-.957A9.366,9.366,0,0,0,359.365,1684.49Zm-43.7-25.588-.383.115a8.08,8.08,0,0,1-2.314.338,8.016,8.016,0,0,1-7.793-9.916l3.658,3.659,5.568-.476.483-5.574-3.563-3.563a8.019,8.019,0,0,1,9.331,10.161l-.114.383,4.914,4.914-4.873,4.873Zm13.189,8.711a1.9,1.9,0,0,1,0-2.682l5.093-5.094a1.9,1.9,0,0,1,2.682,0,2.062,2.062,0,0,1,0,2.917l-4.859,4.859A2.113,2.113,0,0,1,328.852,1667.613Zm3.806,3.806a1.983,1.983,0,0,1,0-2.8l.058-.058,0,0,4.857-4.857h0l.058-.058a1.98,1.98,0,1,1,2.8,2.8l-4.975,4.975A2.028,2.028,0,0,1,332.659,1671.42Zm3.747,3.748a1.984,1.984,0,0,1,0-2.8l4.976-4.975a1.98,1.98,0,1,1,2.8,2.8l-4.975,4.975A2.028,2.028,0,0,1,336.406,1675.167Zm3.747,3.748a1.982,1.982,0,0,1,0-2.8l2.9-2.9a1.98,1.98,0,1,1,2.8,2.8l-1.916,1.916-.981.981A2.03,2.03,0,0,1,340.154,1678.915Zm20.385,14.092-3.658-3.659-5.568.475-.483,5.575,3.563,3.563a8.019,8.019,0,0,1-9.331-10.161l.114-.383-4.914-4.914,2.023-2.024,2.85-2.85,4.914,4.915.383-.115a8.077,8.077,0,0,1,2.314-.339,8.018,8.018,0,0,1,7.793,9.917Z" transform="translate(0 0)"/></g></g></svg>