<svg xmlns="http://www.w3.org/2000/svg" width="90" height="90" viewBox="0 0 90 90"><defs><style>.a{fill:#f8f8f8;}</style></defs><g transform="translate(-230 -678)"><g transform="translate(230 678)"><circle class="a" cx="45" cy="45" r="45"/></g><g transform="translate(60.748 639.081)"><rect width="1.5" height="1.5" transform="translate(218.525 79.557)"/><rect width="1.5" height="1.5" transform="translate(218.525 83.057)"/><rect width="1.5" height="1.5" transform="translate(218.525 86.557)"/><path d="M242.949,79.868a3.808,3.808,0,0,0-3.726,3.051h-5.834A19.321,19.321,0,0,0,228.236,70.5l4.129-4.129a3.8,3.8,0,0,0,4.794-.478,3.806,3.806,0,0,0,0-5.376,3.893,3.893,0,0,0-5.376,0,3.8,3.8,0,0,0-.479,4.794l-4.128,4.129a19.325,19.325,0,0,0-12.425-5.154V58.447a3.8,3.8,0,1,0-1.5,0v5.834a19.322,19.322,0,0,0-12.424,5.154L196.7,65.306a3.8,3.8,0,0,0-.478-4.794,3.893,3.893,0,0,0-5.376,0,3.8,3.8,0,0,0,4.794,5.855l4.128,4.128a19.326,19.326,0,0,0-5.153,12.424h-5.834a3.8,3.8,0,1,0,0,1.5h5.834a19.329,19.329,0,0,0,5.153,12.425l-4.134,4.134a3.912,3.912,0,0,0-4.788.473,3.8,3.8,0,1,0,5.854.582l4.129-4.129a19.316,19.316,0,0,0,12.424,5.153v5.834a3.8,3.8,0,1,0,1.5,0v-5.834A19.324,19.324,0,0,0,227.176,97.9l4.128,4.129a3.8,3.8,0,1,0,5.855-.582,3.914,3.914,0,0,0-4.789-.473l-4.134-4.134a19.324,19.324,0,0,0,5.153-12.425h5.834a3.8,3.8,0,1,0,3.726-4.551Zm-57.9,6.1a2.3,2.3,0,1,1,2.3-2.3A2.3,2.3,0,0,1,185.053,85.971Zm47.79-24.4a2.3,2.3,0,1,1,3.256,3.256,2.359,2.359,0,0,1-3.256,0,2.3,2.3,0,0,1,0-3.256ZM211.7,54.721a2.3,2.3,0,1,1,2.3,2.3A2.305,2.305,0,0,1,211.7,54.721ZM191.9,64.828a2.3,2.3,0,1,1,3.256,0A2.359,2.359,0,0,1,191.9,64.828Zm3.256,40.938a2.357,2.357,0,0,1-3.256,0,2.3,2.3,0,1,1,3.256,0Zm21.143,6.852a2.3,2.3,0,1,1-2.3-2.3A2.3,2.3,0,0,1,216.3,112.618Zm18.168-10.781a2.3,2.3,0,0,1,1.628,3.929,2.357,2.357,0,0,1-3.256,0,2.3,2.3,0,0,1,1.628-3.929ZM214,101.6a17.927,17.927,0,1,1,17.926-17.927A17.947,17.947,0,0,1,214,101.6Zm28.948-15.625a2.3,2.3,0,1,1,2.3-2.3A2.3,2.3,0,0,1,242.949,85.971Z"/><path d="M223.385,79.968V74.042a.75.75,0,0,0-1.5,0V75.7l-16.22,5.124-3.434-2.244a.749.749,0,0,0-1.16.627v9.315a.75.75,0,0,0,1.16.627l3.434-2.244,1.909.6a4.56,4.56,0,0,0,3.864,6.667c.064,0,.127,0,.19,0a4.531,4.531,0,0,0,4.508-3.966l5.749,1.816v1.661a.75.75,0,1,0,1.5,0V87.765a4.007,4.007,0,0,0,0-7.8Zm-9.677,11.9a3.075,3.075,0,0,1-5.158-2.385,3.028,3.028,0,0,1,.473-1.513l5.669,1.791A3.05,3.05,0,0,1,213.708,91.865Zm-7.929-6.5a.748.748,0,0,0-.636.087l-2.572,1.681V80.594l2.572,1.681a.748.748,0,0,0,.636.087l16.106-5.088V90.457Zm17.606.831V81.533a2.512,2.512,0,0,1,0,4.667Z"/></g></g></svg>