<svg xmlns="http://www.w3.org/2000/svg" width="90" height="90" viewBox="0 0 90 90"><defs><style>.a{fill:#f8f8f8;}</style></defs><g transform="translate(-809 -774)"><g transform="translate(809 774)"><circle class="a" cx="45" cy="45" r="45"/></g><g transform="translate(275.949 492.3)"><path d="M597.343,316.812c0-3.44-2.135-6.282-4.879-6.684v-7.21a2.178,2.178,0,1,0-4.355,0v2.037c-7.272,4.623-12.438,6.452-18.647,6.583v-2.26h-10.1a7.541,7.541,0,0,0-.825,15.019l.929,4.478h-1.823a2.557,2.557,0,0,0-2.1,1.114l-2.251,3.209h-3.213v1.359h3.9l2.655-3.784a1.232,1.232,0,0,1,1.014-.538h10.749a3.673,3.673,0,0,1-3.588,3.039h-4.949v1.359h2.962a2.846,2.846,0,0,0-.417,1.473,2.927,2.927,0,0,0,1.038,2.232,2.874,2.874,0,0,0-.014,4.411,2.873,2.873,0,0,0,0,4.4,2.871,2.871,0,0,0-.589,3.717h-5.482a2.437,2.437,0,0,1-1.055-.239l-1.58-.753a4.61,4.61,0,0,0-1.977-.449l-3.689.013,0,1.359,3.687-.013a3.292,3.292,0,0,1,1.41.32l1.58.753a3.782,3.782,0,0,0,1.621.368h7.321v-.056a2.829,2.829,0,0,0,.55.056h2.615a2.856,2.856,0,0,0,2.826-2.878,2.894,2.894,0,0,0-.436-1.519h0a2.877,2.877,0,0,0,1.8-5.078,2.874,2.874,0,0,0-.014-4.411,2.926,2.926,0,0,0,1.038-2.232,2.81,2.81,0,0,0-2.78-2.833h-2.092a5.1,5.1,0,0,0,1.6-3.718v-.68h-2.968a2.644,2.644,0,0,0-.8-1.384l-.285-.257a1.3,1.3,0,0,1-.312-1.5l.578-1.283h3.462v-2.261c6.209.131,11.375,1.961,18.647,6.583v2.038a2.178,2.178,0,1,0,4.355,0V323.5C595.209,323.094,597.343,320.252,597.343,316.812ZM569.33,349.245a1.507,1.507,0,0,1-1.492,1.519h-2.615a1.519,1.519,0,0,1,0-3.038h2.615A1.507,1.507,0,0,1,569.33,349.245Zm2.393-4.4a1.508,1.508,0,0,1-1.491,1.52h-5.009a1.52,1.52,0,0,1,0-3.039h5.009A1.507,1.507,0,0,1,571.724,344.847Zm-6.5-2.878a1.52,1.52,0,0,1,0-3.039h5.009a1.52,1.52,0,0,1,0,3.039Zm6.5-5.963a1.552,1.552,0,0,1-1.535,1.565h-4.92a1.551,1.551,0,0,1-1.535-1.565,1.462,1.462,0,0,1,1.446-1.473h5.1A1.462,1.462,0,0,1,571.724,336.006Zm-6.314-7.231h-4.58l-.919-4.429h4.622l-.323.717a2.669,2.669,0,0,0,.64,3.088l.285.257A1.282,1.282,0,0,1,565.41,328.775Zm2.719-5.788h-8.767a6.176,6.176,0,0,1,0-12.35h8.767v12.35Zm1.334-2.266V312.9c7.107-.157,12.688-2.631,18.647-6.346v20.51C582.151,323.353,576.57,320.879,569.463,320.721Zm21.668,9.986a.843.843,0,1,1-1.686,0V302.918a.843.843,0,1,1,1.686,0Zm1.334-8.59V311.508c2.006.41,3.544,2.629,3.544,5.3S594.47,321.706,592.465,322.116Z"/><rect width="1.5" height="6.391" transform="matrix(0.707, -0.707, 0.707, 0.707, 596.852, 324.307)"/><rect width="6.391" height="1.5" transform="translate(600.66 316.089)"/><rect width="6.391" height="1.5" transform="matrix(0.707, -0.707, 0.707, 0.707, 596.852, 310.036)"/></g></g></svg>