<svg xmlns="http://www.w3.org/2000/svg" width="198.635" height="28.193" viewBox="0 0 198.635 28.193"><defs><style>.a,.b{fill:#fff;}.a{fill-rule:evenodd;}</style></defs><path class="a" d="M20.46,89.806a13.952,13.952,0,0,0,9.481,3.938c-.344-3.573-.69-7.164-1.043-10.914C26.432,84.785,22.959,87.784,20.46,89.806Z" transform="translate(-16.192 -65.551)"/><path class="a" d="M68.53,93.37a13.952,13.952,0,0,0,9.533-4.018c-2.476-1.98-6.014-5.021-8.515-6.992C69.2,86.148,68.862,89.77,68.53,93.37Z" transform="translate(-54.234 -65.179)"/><path class="a" d="M3.886,21.6A13.977,13.977,0,0,0,0,31.106l10.848-.98C8.878,27.6,5.858,24.076,3.886,21.6Z" transform="translate(0 -17.094)"/><path class="a" d="M0,69.94a13.977,13.977,0,0,0,3.922,9.325C5.916,76.8,8.876,73.374,10.766,71Z" transform="translate(0 -55.35)"/><path class="a" d="M89.241,78.374a13.958,13.958,0,0,0,3.886-9.5l-10.848.98C84.247,72.372,87.268,75.9,89.241,78.374Z" transform="translate(-65.116 -54.503)"/><path class="a" d="M29.581.89A13.945,13.945,0,0,0,20.05,4.91c2.474,1.98,6.014,5.021,8.515,6.992C28.916,8.114,29.25,4.493,29.581.89Z" transform="translate(-15.867 -0.704)"/><path class="a" d="M150,92.49a13.956,13.956,0,0,0,9.527-4.018c-2.476-1.98-6.016-5.021-8.517-6.992C150.659,85.266,150.325,88.89,150,92.49Z" transform="translate(-118.709 -64.483)"/><path class="a" d="M85.316,20.72a13.958,13.958,0,0,0-3.886,9.5l10.848-.98C90.31,26.724,87.29,23.2,85.316,20.72Z" transform="translate(-64.443 -16.398)"/><path class="a" d="M163.67,68.976c1.978,2.52,5.007,6.05,6.97,8.526a13.977,13.977,0,0,0,3.886-9.5Z" transform="translate(-129.527 -53.815)"/><path class="a" d="M110,11.012c.353-3.788.684-7.41,1.016-11.012a13.964,13.964,0,0,0-9.533,4.02C103.956,6,107.494,9.041,110,11.012Z" transform="translate(-80.311)"/><path class="a" d="M159.281,3.938A13.952,13.952,0,0,0,149.8,0c.344,3.573.69,7.164,1.043,10.912C153.309,8.97,156.78,5.96,159.281,3.938Z" transform="translate(-118.551)"/><path class="a" d="M174.86,29.835a13.952,13.952,0,0,0-3.922-9.325c-1.988,2.464-4.946,5.891-6.838,8.273Z" transform="translate(-129.868 -16.231)"/><g transform="translate(51.171 7.301)"><path class="b" d="M255,42.508a3.472,3.472,0,0,0-.795-.686,5,5,0,0,0-.96-.471,20.669,20.669,0,0,0-2.779-.757c-.592-.131-1.081-.257-1.471-.378a3.659,3.659,0,0,1-.93-.417,1.308,1.308,0,0,1-.488-.526,1.617,1.617,0,0,1-.144-.713,1.692,1.692,0,0,1,.793-1.46,3.964,3.964,0,0,1,2.251-.547q3,0,3.258,2.378h1.69a3.931,3.931,0,0,0-.417-1.669,3.631,3.631,0,0,0-1.043-1.233,4.677,4.677,0,0,0-1.56-.763,7.209,7.209,0,0,0-2-.267,6.275,6.275,0,0,0-1.9.271,4.477,4.477,0,0,0-1.473.751,3.532,3.532,0,0,0-.949,1.149,3.257,3.257,0,0,0-.336,1.46,2.829,2.829,0,0,0,.976,2.259,4.556,4.556,0,0,0,1.289.784,10.323,10.323,0,0,0,1.938.569c.759.163,1.4.317,1.917.467a5.723,5.723,0,0,1,1.27.5,1.863,1.863,0,0,1,.676,2.5,2.218,2.218,0,0,1-.661.7,3.187,3.187,0,0,1-1.022.448,5.29,5.29,0,0,1-1.318.156,5.949,5.949,0,0,1-1.431-.173,3.857,3.857,0,0,1-1.187-.522,2.712,2.712,0,0,1-.834-.891,3.022,3.022,0,0,1-.39-1.287H245.3a4.823,4.823,0,0,0,.388,1.779,3.964,3.964,0,0,0,1.043,1.408,4.942,4.942,0,0,0,1.721.922,7.94,7.94,0,0,0,2.437.336,6.31,6.31,0,0,0,1.975-.3,4.8,4.8,0,0,0,1.537-.834,3.755,3.755,0,0,0,1-1.252,3.45,3.45,0,0,0,.359-1.565,3.393,3.393,0,0,0-.209-1.193,3.207,3.207,0,0,0-.547-.945Z" transform="translate(-245.3 -34.998)"/><path class="b" d="M327.534,37.708a3.26,3.26,0,0,0-.749-.809,2.711,2.711,0,0,0-.976-.49,6.883,6.883,0,0,0-1.216-.229,14.379,14.379,0,0,0-1.46-.069H318.22V49.229h1.733v-5.24h3.306a5.652,5.652,0,0,0,3.665-1.031,3.681,3.681,0,0,0,1.252-3.023,4.146,4.146,0,0,0-.165-1.183,3.727,3.727,0,0,0-.478-1.045Zm-1.327,3.323a1.792,1.792,0,0,1-.524.766,2.464,2.464,0,0,1-.958.469,5.553,5.553,0,0,1-1.429.161H319.96V37.66h3.286a7.359,7.359,0,0,1,1.744.161,1.552,1.552,0,0,1,.557.284,1.825,1.825,0,0,1,.436.486,2.666,2.666,0,0,1,.288.647,2.7,2.7,0,0,1,.1.749A2.966,2.966,0,0,1,326.208,41.031Z" transform="translate(-303.008 -35.878)"/><path class="b" d="M379.519,36.11,374.41,49.233h1.861l4.143-11.252,4.145,11.252h1.861L381.311,36.11Z" transform="translate(-347.477 -35.878)"/><path class="b" d="M458.391,43.325a4.907,4.907,0,0,0,1.222-.476,3.175,3.175,0,0,0,.922-.753,3.262,3.262,0,0,0,.588-1.02,3.635,3.635,0,0,0,.209-1.252,4.066,4.066,0,0,0-.161-1.129,3.994,3.994,0,0,0-.449-1,3.252,3.252,0,0,0-.691-.778,2.64,2.64,0,0,0-.882-.48,6.3,6.3,0,0,0-1.11-.209,12.692,12.692,0,0,0-1.383-.069H450.85V49.268h1.736V43.661H455.8a2.9,2.9,0,0,1,.947.154,3,3,0,0,1,.834.434,3.294,3.294,0,0,1,.655.674,3.646,3.646,0,0,1,.453.849l1.222,3.5h1.877L460.477,45.7A3.551,3.551,0,0,0,458.391,43.325Zm-.528-1.348a6.856,6.856,0,0,1-1.4.119h-3.88v-4.51h4.143q2.816,0,2.818,2.238a2.871,2.871,0,0,1-.173,1.058,1.542,1.542,0,0,1-.547.705,2.461,2.461,0,0,1-.951.39Z" transform="translate(-407.971 -35.917)"/><path class="b" d="M536.137,36.11h-2.345l-6.406,6.513V36.11H525.65V49.233h1.736V44.688l2.042-2,4.664,6.544h2.284L530.636,41.5Z" transform="translate(-467.167 -35.878)"/><path class="b" d="M911.279,36.11h-2.347l-6.406,6.513V36.11H900.79V49.233h1.736V44.688l2.042-2,4.664,6.544h2.282L905.776,41.5Z" transform="translate(-764.051 -35.878)"/><path class="b" d="M595.55,49.233h1.738V43.286h6.177v-1.56h-6.177V37.66h7.118V36.11H595.55Z" transform="translate(-522.486 -35.878)"/><path class="b" d="M651.957,36.11,646.85,49.233h1.861l4.145-11.252L657,49.233h1.861L653.751,36.11Z" transform="translate(-563.084 -35.878)"/><path class="b" d="M732.471,43.49a3.015,3.015,0,0,0-.793-.724,3.6,3.6,0,0,0-1.106-.471,2.966,2.966,0,0,0,1.9-2.812,3.068,3.068,0,0,0-.313-1.4,2.858,2.858,0,0,0-.893-1.043,4.286,4.286,0,0,0-1.419-.659,6.931,6.931,0,0,0-1.877-.232H723.29V49.258h4.917a5.835,5.835,0,0,0,3.657-.976,3.392,3.392,0,0,0,1.252-2.831,3.447,3.447,0,0,0-.163-1.043,2.957,2.957,0,0,0-.482-.918Zm-7.443-5.8h2.756a6.6,6.6,0,0,1,1.394.127,2.6,2.6,0,0,1,.918.367,1.377,1.377,0,0,1,.5.609,2.121,2.121,0,0,1,.156.849,1.715,1.715,0,0,1-.682,1.529,3.85,3.85,0,0,1-2.117.457h-2.92ZM728.194,47.7h-3.167V43.19h2.937a7.643,7.643,0,0,1,1.6.14,2.645,2.645,0,0,1,1.024.417,1.491,1.491,0,0,1,.563.713,2.808,2.808,0,0,1,.159,1Q731.3,47.7,728.194,47.7Z" transform="translate(-623.578 -35.907)"/><path class="b" d="M800.743,43.325a4.876,4.876,0,0,0,1.222-.476,3.221,3.221,0,0,0,.926-.753,3.3,3.3,0,0,0,.586-1.02,3.69,3.69,0,0,0,.209-1.252,4.04,4.04,0,0,0-.611-2.13,3.2,3.2,0,0,0-.688-.778,2.659,2.659,0,0,0-.887-.48,6.241,6.241,0,0,0-1.108-.209,12.7,12.7,0,0,0-1.381-.069H793.2V49.268h1.731V43.661h3.219a2.9,2.9,0,0,1,.947.154,2.988,2.988,0,0,1,.824.434,3.248,3.248,0,0,1,.657.674,3.727,3.727,0,0,1,.453.849l1.229,3.5h1.877L802.821,45.7A3.536,3.536,0,0,0,800.743,43.325Zm-.528-1.348a6.828,6.828,0,0,1-1.4.119h-3.884v-4.51h4.147q2.816,0,2.814,2.238a2.87,2.87,0,0,1-.173,1.058,1.542,1.542,0,0,1-.547.705A2.422,2.422,0,0,1,800.215,41.977Z" transform="translate(-678.905 -35.917)"/><rect class="b" width="1.744" height="13.123" transform="translate(130.12 0.232)"/></g></svg>