<svg height="43.7" viewBox="2.9 11.1 67.6 43.7" width="67.6" xmlns="http://www.w3.org/2000/svg">
  <style>
    @keyframes pulse {
      0%, 100% { fill: #efefef; } /* grigio chiaro */
      50% { fill: rgb(41,83,125); } /* blu scuro */
    }

    .slice {
      animation: pulse 2s infinite;
    }
  </style>
  <g clip-rule="evenodd" fill="#f3f3f3" fill-rule="evenodd" transform="translate(-68.3)">
    <path class="slice" d="m77.6 48.7c4 4 9.1 6 14.2 6.1-.5-5.5-1-11.1-1.6-16.9-3.6 3-8.8 7.7-12.6 10.8z"/>
    <path class="slice" d="m92.7 54.8c5.2-.1 10.3-2.2 14.3-6.2-3.7-3.1-9-7.8-12.8-10.8-.5 5.8-1 11.4-1.5 17z"/>
    <path class="slice" d="m77.1 18.1c-3.8 4.1-5.8 9.4-5.8 14.7 5.4-.5 10.7-1 16.3-1.5-3.1-3.9-7.6-9.3-10.5-13.2z"/>
    <path class="slice" d="m71.2 33.7c.1 5.2 2.1 10.4 5.9 14.4 3-3.8 7.4-9.1 10.3-12.8-5.6-.5-10.9-1-16.2-1.6z"/>
    <path class="slice" d="m107.4 48.1c3.8-4.1 5.8-9.4 5.8-14.7-5.4.5-10.7 1-16.3 1.5 3 3.9 7.6 9.4 10.5 13.2z"/>
    <path class="slice" d="m91.8 11.4c-5.2.1-10.3 2.2-14.3 6.2 3.7 3.1 9 7.8 12.8 10.8.5-5.8 1-11.4 1.5-17z"/>
    <path class="slice" d="m118.2 54.5c5.2-.1 10.3-2.2 14.3-6.2-3.7-3.1-9-7.8-12.8-10.8-.5 5.8-1 11.4-1.5 17z"/>
    <path class="slice" d="m102.6 17.8c-3.8 4.1-5.8 9.4-5.8 14.7 5.4-.5 10.7-1 16.3-1.5-3-3.9-7.6-9.3-10.5-13.2z"/>
    <path class="slice" d="m122.5 34.6c3 3.9 7.5 9.4 10.5 13.2 3.8-4.1 5.8-9.4 5.8-14.7-5.4.5-10.8 1-16.3 1.5z"/>
    <path class="slice" d="m115.8 28.2c.5-5.9 1-11.5 1.5-17.1-5.2.1-10.3 2.2-14.3 6.2 3.7 3.1 9 7.8 12.8 10.9z"/>
    <path class="slice" d="m132.4 17.2c-4-4-9.1-6-14.2-6.1.5 5.5 1 11.1 1.6 16.9 3.6-3 8.8-7.6 12.6-10.8z"/>
    <path class="slice" d="m138.8 32.2c-.1-5.2-2.1-10.4-5.9-14.4-3 3.8-7.4 9.1-10.3 12.8 5.6.5 10.9 1.1 16.2 1.6z"/>
  </g>
</svg>
