<svg xmlns="http://www.w3.org/2000/svg" width="90" height="90" viewBox="0 0 90 90"><defs><style>.a{fill:#f8f8f8;}</style></defs><g transform="translate(-207 -1815)"><g transform="translate(207 1815)"><circle class="a" cx="45" cy="45" r="45"/></g><g transform="translate(-449.217 -912.357)"><path d="M718.46,2803.79h7.831l-.044-.721c-.2-3.249-.473-6.1-.806-8.461l-.024-.186a8.782,8.782,0,0,0-1.19-3.515l-.041-.072a6.817,6.817,0,0,0-2.538-2.489,7.83,7.83,0,0,0-1.122-.512l-5.762-2.06-2.266,4.206-5.413-1.935-5.305,9.843h-2.049l-5.289-9.843-5.426,1.94-2.269-4.211-5.769,2.063a7.778,7.778,0,0,0-1.12.512,6.774,6.774,0,0,0-2.515,2.453l-.091.159a8.748,8.748,0,0,0-1.159,3.461l-.025.186c-.333,2.365-.605,5.212-.805,8.461l-.044.721h7.8c-.029.5-.056,1.014-.078,1.564l-.028.707h35.7l-.044-.721C718.535,2804.806,718.5,2804.3,718.46,2803.79Zm-3.057-16.342,4.656,1.664a6.489,6.489,0,0,1,.919.417,5.529,5.529,0,0,1,2.033,1.986l.034.066a7.448,7.448,0,0,1,1.016,2.96c0,.029.013.114.033.256.3,2.155.555,4.72.748,7.634h-6.487c-.168-2.056-.365-3.926-.594-5.553l-.025-.184a8.8,8.8,0,0,0-1.189-3.515l-.041-.073a6.814,6.814,0,0,0-2.54-2.488c-.068-.039-.142-.072-.212-.108Zm-38.74,14.983c.193-2.914.445-5.479.749-7.634.019-.142.031-.227.033-.249a7.542,7.542,0,0,1,1.052-3.031,5.448,5.448,0,0,1,2.027-1.986,6.431,6.431,0,0,1,.917-.418l4.662-1.667,1.661,3.081a6.87,6.87,0,0,0-2.8,2.649,8.335,8.335,0,0,0-1.209,4.055,44.964,44.964,0,0,0-.644,5.2Zm7.665,2.271a49.783,49.783,0,0,1,.768-7.252l.015-.145a6.975,6.975,0,0,1,1.029-3.453,5.642,5.642,0,0,1,2.995-2.466l4.661-1.668,5.12,9.529h3.673l5.135-9.529,4.655,1.665a6.453,6.453,0,0,1,.92.417,5.53,5.53,0,0,1,2.032,1.987l.035.065a7.449,7.449,0,0,1,1.016,2.96c0,.029.014.113.033.255.3,2.154.556,4.72.748,7.634Z" transform="translate(0 -4.085)"/><path d="M694.076,2783.529a8.157,8.157,0,0,0,1.817-.222,8.153,8.153,0,0,0,11.736,0,8.176,8.176,0,1,0-4.044-13.665,7.94,7.94,0,0,0-3.653,0,8.179,8.179,0,1,0-5.857,13.884Zm15.365-15.009a6.825,6.825,0,1,1,0,13.65,6.991,6.991,0,0,1-.848-.058,8.168,8.168,0,0,0-3.539-11.984A6.824,6.824,0,0,1,709.441,2768.52Zm-.854,9.1a6.825,6.825,0,1,1-6.825-6.826A6.833,6.833,0,0,1,708.587,2777.616Zm-14.511-9.1a6.823,6.823,0,0,1,4.389,1.611,8.166,8.166,0,0,0-3.535,11.98,6.915,6.915,0,0,1-.854.059,6.825,6.825,0,1,1,0-13.65Z" transform="translate(-1.004 -2.334)"/><path d="M702.216,2750.617v8.31h1.359v-8.31l3.279,3.279.961-.961-4.92-4.919-4.92,4.919.961.961Z" transform="translate(-2.141 -0.532)"/><rect width="1.359" height="1.359" transform="translate(700.077 2762.573)"/><rect width="1.359" height="1.359" transform="translate(700.077 2759.855)"/><path d="M713.473,2744.958v8.31h1.359v-8.31l3.279,3.279.961-.96-4.92-4.92-4.92,4.92.961.96Z" transform="translate(-3.201)"/><rect width="1.359" height="1.359" transform="translate(710.276 2757.447)"/><rect width="1.359" height="1.359" transform="translate(710.276 2754.729)"/><path d="M690.959,2744.958v8.31h1.359v-8.31l3.279,3.279.961-.96-4.92-4.92-4.92,4.92.961.96Z" transform="translate(-1.082)"/><rect width="1.359" height="1.359" transform="translate(689.879 2754.729)"/><rect width="1.359" height="1.359" transform="translate(689.879 2757.447)"/></g></g></svg>